. 
 
http://www.torrenting.com          :     Once & For all ;)


               www . Torrenting . Com 

(((((((((((((= Enjoy No RAR releases =))))))))))))))))))))


...................................NFO:....................................

.Ghost Rider Spirit of Vengeance 2012 TS XviD - ILLUMINATI
 
http://www.imdb.com/title/tt1071875/

Sources - Thanks :P

Video
ID                               : 0
Format                           : MPEG-4 Visual
Format profile                   : Advanced Simple@L5
Format settings, BVOP            : 2
Format settings, QPel            : No
Format settings, GMC             : No warppoints
Format settings, Matrix          : Default (H.263)
Muxing mode                      : Packed bitstream
Codec ID                         : XVID
Codec ID/Hint                    : XviD
Duration                         : 1h 28mn
Bit rate                         : 2 089 Kbps
Width                            : 720 pixels
Height                           : 288 pixels
Display aspect ratio             : 2.500
Frame rate                       : 23.976 fps
Color space                      : YUV
Chroma subsampling               : 4:2:0
Bit depth                        : 8 bits
Scan type                        : Progressive
Compression mode                 : Lossy
Bits/(Pixel*Frame)               : 0.420
Stream size                      : 1.29 GiB (94%)
Writing library                  : XviD 64

Audio
ID                               : 1
Format                           : MPEG Audio
Format version                   : Version 1
Format profile                   : Layer 3
Mode                             : Joint stereo
Mode extension                   : MS Stereo
Codec ID                         : 55
Codec ID/Hint                    : MP3
Duration                         : 1h 28mn
Bit rate mode                    : Constant
Bit rate                         : 128 Kbps
Channel(s)                       : 2 channels
Sampling rate                    : 44.1 KHz
Compression mode                 : Lossy
Stream size                      : 80.7 MiB (6%)
Alignment                        : Split accross interleaves
Interleave, duration             : 42 ms (1.00 video frame)

Notes -
Nothing you need to know other than its very nice ;)


[IMG]http://i.imgur.com/eI5Qd.png[/IMG]
[IMG]http://i.imgur.com/dJTeh.png[/IMG]
[IMG]http://i.imgur.com/Cohpq.png[/IMG]
[IMG]http://i.imgur.com/vu6xr.png[/IMG]
[IMG]http://i.imgur.com/lSWqI.png[/IMG]
[IMG]http://i.imgur.com/e89gb.png[/IMG]
[IMG]http://i.imgur.com/e59tQ.png[/IMG]
[IMG]http://i.imgur.com/wNVda.png[/IMG]
[IMG]http://i.im